<svg xmlns="http://www.w3.org/2000/svg" fill="none" viewBox="0 0 24 24" height="24" width="24">
  <g id="Cylinder-Shape">
    <path id="Vector" fill="#000000" d="M12 2c2.0352 0 3.9252 0.35202 5.3438 0.95996 0.7073 0.30319 1.3443 0.68961 1.8183 1.16992C19.6403 4.61451 20 5.24775 20 6v12c0 0.7522 -0.3597 1.3855 -0.8379 1.8701 -0.474 0.4803 -1.111 0.8667 -1.8183 1.1699 -1.4186 0.608 -3.3086 0.96 -5.3438 0.96 -2.03518 0 -3.92523 -0.352 -5.34375 -0.96 -0.70739 -0.3032 -1.34433 -0.6896 -1.81836 -1.1699C4.35969 19.3855 4 18.7522 4 18V6c0 -0.75225 0.35969 -1.38549 0.83789 -1.87012 0.47403 -0.48031 1.11097 -0.86673 1.81836 -1.16992C8.07477 2.35202 9.96482 2 12 2m6 6.71973c-0.2098 0.115 -0.4289 0.22285 -0.6562 0.32031C15.9252 9.64798 14.0352 10 12 10c-2.03518 0 -3.92523 -0.35202 -5.34375 -0.95996 -0.22738 -0.09746 -0.4465 -0.20531 -0.65625 -0.32031V18c0 0.076 0.03186 0.2318 0.26172 0.4648 0.23436 0.2375 0.62335 0.4977 1.18262 0.7373C8.55931 19.68 10.1693 20 12 20s3.4407 -0.32 4.5557 -0.7979c0.5592 -0.2396 0.9482 -0.4998 1.1826 -0.7373 0.2298 -0.233 0.2617 -0.3888 0.2617 -0.4648zM12 4c-1.8307 0 -3.44069 0.32003 -4.55566 0.79785 -0.55927 0.23969 -0.94826 0.49984 -1.18262 0.73731C6.03186 5.76816 6 5.92398 6 6s0.03186 0.23184 0.26172 0.46484c0.23436 0.23747 0.62335 0.49762 1.18262 0.73731C8.55931 7.67997 10.1693 8 12 8s3.4407 -0.32003 4.5557 -0.79785c0.5592 -0.23969 0.9482 -0.49984 1.1826 -0.73731C17.9681 6.23184 18 6.07602 18 6s-0.0319 -0.23184 -0.2617 -0.46484c-0.2344 -0.23747 -0.6234 -0.49762 -1.1826 -0.73731C15.4407 4.32003 13.8307 4 12 4" stroke-width="1"></path>
  </g>
</svg>