<svg xmlns="http://www.w3.org/2000/svg" fill="none" viewBox="0 0 24 24" height="24" width="24">
  <g id="fullscreen">
    <path id="Union" fill="#000000" d="M4 16c0.55228 0 1 0.4477 1 1v2h2c0.55228 0 1 0.4477 1 1s-0.44772 1 -1 1H5c-1.10457 0 -2 -0.8954 -2 -2v-2c0 -0.5523 0.44772 -1 1 -1m16 0c0.5523 0 1 0.4477 1 1v2c0 1.1046 -0.8954 2 -2 2h-2c-0.5523 0 -1 -0.4477 -1 -1s0.4477 -1 1 -1h2v-2c0 -0.5523 0.4477 -1 1 -1M7 3c0.55228 0 1 0.44772 1 1s-0.44772 1 -1 1H5v2c0 0.55228 -0.44772 1 -1 1s-1 -0.44772 -1 -1V5c0 -1.10457 0.89543 -2 2 -2zm12 0c1.1046 0 2 0.89543 2 2v2c0 0.55228 -0.4477 1 -1 1s-1 -0.44772 -1 -1V5h-2c-0.5523 0 -1 -0.44772 -1 -1s0.4477 -1 1 -1z" stroke-width="1"></path>
  </g>
</svg>