<?xml version="1.0" encoding="UTF-8" standalone="no"?>
<svg
   fill="none"
   viewBox="0 0 24 24"
   height="24"
   width="24"
   version="1.1"
   id="svg1"
   sodipodi:docname="redo.svg"
   inkscape:version="1.4.3 (0d15f75, 2025-12-25)"
   xmlns:inkscape="http://www.inkscape.org/namespaces/inkscape"
   xmlns:sodipodi="http://sodipodi.sourceforge.net/DTD/sodipodi-0.dtd"
   xmlns="http://www.w3.org/2000/svg"
   xmlns:svg="http://www.w3.org/2000/svg">
  <defs
     id="defs1" />
  <sodipodi:namedview
     id="namedview1"
     pagecolor="#ffffff"
     bordercolor="#000000"
     borderopacity="0.25"
     inkscape:showpageshadow="2"
     inkscape:pageopacity="0.0"
     inkscape:pagecheckerboard="0"
     inkscape:deskcolor="#d1d1d1"
     inkscape:zoom="75.625"
     inkscape:cx="12"
     inkscape:cy="12"
     inkscape:window-width="3840"
     inkscape:window-height="2054"
     inkscape:window-x="3061"
     inkscape:window-y="-11"
     inkscape:window-maximized="1"
     inkscape:current-layer="svg1" />
  <g
     id="undo"
     transform="matrix(-1,0,0,1,24,0)">
    <path
       id="Union"
       fill="#000000"
       d="m 8.04297,4.54303 c 0.39052,-0.39052 1.02354,-0.39052 1.41406,0 0.39049,0.39053 0.39051,1.02355 0,1.41406 L 7.41406,8.00006 H 14.5 c 3.0376,0 5.5,2.46244 5.5,5.50004 0,3.0375 -2.4625,5.5 -5.5,5.5 H 8 c -0.55226,0 -0.99996,-0.4478 -1,-1 0,-0.5523 0.44772,-1 1,-1 h 6.5 c 1.933,0 3.5,-1.5671 3.5,-3.5 0,-1.933 -1.567,-3.5 -3.5,-3.5 H 7.41406 l 2.04297,2.0429 c 0.39049,0.3906 0.39051,1.0236 0,1.4141 -0.39051,0.3905 -1.02355,0.3905 -1.41406,0 l -3.75,-3.75001 C 4.26183,9.67596 4.23418,9.64243 4.20801,9.60846 4.19423,9.59055 4.18053,9.57261 4.16797,9.55377 4.14113,9.51355 4.11804,9.47166 4.09766,9.42877 4.07653,9.3844 4.05745,9.33876 4.04297,9.29108 4.0379,9.27435 4.03445,9.25722 4.03027,9.2403 4.01125,9.16325 4.00001,9.08298 4,9.00006 4,8.92038 4.00974,8.84291 4.02734,8.76862 4.03221,8.74806 4.03678,8.72736 4.04297,8.70709 4.05787,8.65834 4.07777,8.61174 4.09961,8.56647 4.11877,8.52667 4.1403,8.48774 4.16504,8.45026 4.20242,8.3936 4.24516,8.34084 4.29297,8.29303 Z"
       stroke-width="1" />
  </g>
</svg>
