<svg xmlns="http://www.w3.org/2000/svg" fill="none" viewBox="0 0 24 24" height="24" width="24">
  <path fill="#000000" d="M12 0c6.6274 0 12 5.37258 12 12 0 6.6274 -5.3726 12 -12 12 -6.62742 0 -12 -5.3726 -12 -12C0 5.37258 5.37258 0 12 0M9.4541 17c0.17709 0.9082 0.39984 1.7287 0.6572 2.4365 0.3388 0.9315 0.7186 1.6149 1.0899 2.0469 0.3741 0.4352 0.6476 0.5166 0.7988 0.5166s0.4247 -0.0814 0.7988 -0.5166c0.3713 -0.432 0.7511 -1.1154 1.0899 -2.0469 0.2574 -0.7078 0.4801 -1.5283 0.6572 -2.4365zm-6.11328 0c1.21053 2.0919 3.15585 3.7031 5.48438 4.4824 -0.21826 -0.4193 -0.4171 -0.8765 -0.59375 -1.3623 -0.33277 -0.9151 -0.60685 -1.9683 -0.81153 -3.1201zm13.23928 0c-0.2047 1.1518 -0.4788 2.205 -0.8115 3.1201 -0.1768 0.486 -0.3764 0.9429 -0.5948 1.3623 2.3289 -0.7791 4.2747 -2.3902 5.4854 -4.4824zM2.45801 9C2.16055 9.94706 2 10.9548 2 12s0.16055 2.0529 0.45801 3h4.68847C7.05128 14.0395 7 13.0336 7 12s0.05128 -2.03946 0.14648 -3zm6.69922 0C9.05616 9.94594 9 10.9526 9 12s0.05616 2.0541 0.15723 3h5.68557c0.101 -0.9459 0.1572 -1.9526 0.1572 -3s-0.0562 -2.05406 -0.1572 -3zm7.69627 0c0.0952 0.96054 0.1465 1.9664 0.1465 3s-0.0513 2.0395 -0.1465 3h4.6885c0.2975 -0.9471 0.458 -1.9548 0.458 -3s-0.1605 -2.05294 -0.458 -3zM8.8252 2.5166C6.49654 3.29584 4.5514 4.90799 3.34082 7h4.0791c0.20468 -1.15181 0.47876 -2.20501 0.81153 -3.12012 0.17676 -0.4861 0.37533 -0.94377 0.59375 -1.36328M12 2c-0.1512 0 -0.4247 0.08138 -0.7988 0.5166 -0.3713 0.43198 -0.7511 1.11541 -1.0899 2.04688C9.85394 5.27131 9.63119 6.09183 9.4541 7h5.0918c-0.1771 -0.90817 -0.3998 -1.72869 -0.6572 -2.43652 -0.3388 -0.93147 -0.7186 -1.6149 -1.0899 -2.04688C12.4247 2.08138 12.1512 2 12 2m3.1738 0.5166c0.2185 0.41962 0.4179 0.87703 0.5948 1.36328 0.3327 0.91511 0.6068 1.96831 0.8115 3.12012h4.0791c-1.2108 -2.09227 -3.1563 -3.70427 -5.4854 -4.4834" stroke-width="1"></path>
</svg>