<svg xmlns="http://www.w3.org/2000/svg" fill="none" viewBox="0 0 24 24" height="24" width="24">
  <g id="undo">
    <path id="Union" fill="#000000" d="M8.04297 4.54303c0.39052 -0.39052 1.02354 -0.39052 1.41406 0 0.39049 0.39053 0.39051 1.02355 0 1.41406L7.41406 8.00006H14.5c3.0376 0 5.5 2.46244 5.5 5.50004 0 3.0375 -2.4625 5.5 -5.5 5.5H8c-0.55226 0 -0.99996 -0.4478 -1 -1 0 -0.5523 0.44772 -1 1 -1h6.5c1.933 0 3.5 -1.5671 3.5 -3.5 0 -1.933 -1.567 -3.5 -3.5 -3.5H7.41406l2.04297 2.0429c0.39049 0.3906 0.39051 1.0236 0 1.4141s-1.02355 0.3905 -1.41406 0l-3.75 -3.75001c-0.03114 -0.03113 -0.05879 -0.06466 -0.08496 -0.09863 -0.01378 -0.01791 -0.02748 -0.03585 -0.04004 -0.05469 -0.02684 -0.04022 -0.04993 -0.08211 -0.07031 -0.125 -0.02113 -0.04437 -0.04021 -0.09001 -0.05469 -0.13769 -0.00507 -0.01673 -0.00852 -0.03386 -0.0127 -0.05078 -0.01902 -0.07705 -0.03026 -0.15732 -0.03027 -0.24024 0 -0.07968 0.00974 -0.15715 0.02734 -0.23144 0.00487 -0.02056 0.00944 -0.04126 0.01563 -0.06153 0.0149 -0.04875 0.0348 -0.09535 0.05664 -0.14062 0.01916 -0.0398 0.04069 -0.07873 0.06543 -0.11621 0.03738 -0.05666 0.08012 -0.10942 0.12793 -0.15723z" stroke-width="1"></path>
  </g>
</svg>